<?xml version="1.0" encoding="iso-8859-1"?>
<!-- Generator: Adobe Illustrator 16.0.0, SVG Export Plug-In . SVG Version: 6.00 Build 0)  -->
<!DOCTYPE svg PUBLIC "-//W3C//DTD SVG 1.1//EN" "http://www.w3.org/Graphics/SVG/1.1/DTD/svg11.dtd">
<svg version="1.1" id="Capa_1" xmlns="http://www.w3.org/2000/svg" xmlns:xlink="http://www.w3.org/1999/xlink" x="0px" y="0px"
	 width="612px" height="612px" viewBox="0 0 612 612" style="enable-background:new 0 0 612 612;" xml:space="preserve">
<g>
	<g>
		<path d="M387.762,307.058c-9.317,0-16.532,7.503-16.532,16.802v188.789c0,9.299,7.215,16.801,16.532,16.801
			s16.833-7.502,16.833-16.801V323.859C404.595,314.561,397.079,307.058,387.762,307.058z"/>
		<path d="M319.53,350.344c-9.317,0-16.531,7.182-16.531,16.545v189.045c0,9.299,7.214,16.545,16.531,16.545
			c9.318,0,16.532-7.246,16.532-16.545V366.889C336.062,357.525,328.849,350.344,319.53,350.344z"/>
		<path d="M251.293,307.058c-9.317,0-16.833,7.503-16.833,16.802v188.789c0,9.299,7.516,16.801,16.833,16.801
			c9.318,0,16.532-7.502,16.532-16.801V323.859C267.825,314.561,260.611,307.058,251.293,307.058z"/>
		<path d="M593.365,239.981c-12.325-22.508-28.857-40.528-49.897-53.481c-5.111-38.156-20.463-70.604-45.991-97.409
			c-30.076-31.55-70.938-49.57-113.319-49.57c-33.968,0-64.928,10.196-92.284,30.652c-27.35,20.457-46.89,47.197-58.612,79.966
			c-6.317-0.898-11.428-1.219-14.73-1.219c-23.445,0-44.549,7.439-63.126,22.252c-18.392,14.685-30.96,33.346-37.874,56.496
			c-1.199-0.256-3.309-0.577-6.611-0.577c-30.364,0-56.515,11.415-78.453,34.564C10.818,284.485,0,311.867,0,343.995
			c0,28.601,8.83,54.059,26.452,76.375c17.25,21.867,39.739,34.5,67.635,39.374c4.88,0.833,9.92,1.795,15.031,1.795h98.287v-33.666
			h-98.287c-4.213,0-7.214-0.321-9.324-0.577c-18.937-2.693-34.654-11.992-47.492-27.959
			c-12.716-15.904-18.937-34.309-18.937-55.342c0-23.149,7.438-43.029,22.547-59.189c15.25-16.288,33.667-24.368,55.008-24.368
			c12.024,0,24.048,3.334,36.373,9.939c-0.302-2.116-0.603-5.451-0.603-9.939c0-21.354,6.906-39.694,20.739-54.7
			c14.121-15.326,30.96-22.829,51.103-22.829c13.826,0,26.452,3.912,38.174,11.735c3.906-34.564,17.962-63.55,42.08-86.892
			c24.279-23.534,52.603-35.141,85.372-35.141c34.564,0,64.249,13.274,89.271,39.63c24.875,26.228,37.578,58.035,38.175,95.292
			c20.142,8.401,36.007,22.316,48.396,41.49c12.254,18.981,18.635,40.592,18.635,64.319c0,29.178-8.343,54.508-25.548,76.054
			c-17.058,21.419-38.464,34.052-64.325,37.899c-2.398,0.32-6.913,0.577-13.524,0.577h-42.984v33.666h42.984
			c8.413,0,15.024-0.577,19.834-1.795c33.365-4.81,61.453-21.227,84.166-49.891C601.311,382.022,612,349.702,612,313.343
			C612,287.179,605.689,262.554,593.365,239.981z"/>
	</g>
</g>
<g>
</g>
<g>
</g>
<g>
</g>
<g>
</g>
<g>
</g>
<g>
</g>
<g>
</g>
<g>
</g>
<g>
</g>
<g>
</g>
<g>
</g>
<g>
</g>
<g>
</g>
<g>
</g>
<g>
</g>
</svg>
